#!OML:ASF \\sashay\E\basketball\basketball\Project 1\Capture day 1\Session 1\Subject.ASF
:FULLY-SPECIFIED
:DEGREES
273
root 16.8624 14.2101 -3.68023 -181.46 -36.6844 190.212
lowerback 34.975 4.007 -4.68223
upperback 12.6949 0.756569 2.73033
thorax -3.8651 -1.06664 5.15549
lowerneck -5.08977 5.68245 -17.3376
upperneck -17.7428 9.21493 16.8521
head -6.03522 4.22295 8.12053
rclavicle 5.96354e-014 -4.45278e-014
rhumerus -35.2966 -7.41687 -71.7062
rradius 47.4005
rwrist -22.0778
rhand -39.8067 52.3026
rfingers 7.12502
rthumb -12.7815 22.7138
lclavicle 5.96354e-014 -4.45278e-014
lhumerus 0.63377 28.8365 40.2453
lradius 90.5028
lwrist 27.4463
lhand -44.8727 13.4182
lfingers 7.12502
lthumb -17.6612 42.6361
rfemur -51.154 -41.1609 25.3139
rtibia 82.602
rfoot -2.16057 -2.51526
rtoes -9.03552
lfemur -55.1082 32.8785 -13.2482
ltibia 79.4622
lfoot -10.1714 2.05277
ltoes -30.6833
274
root 17.104 14.1907 -3.83535 -181.941 -36.6703 190.977
lowerback 34.926 4.0398 -4.55327
upperback 12.6803 0.87153 3.11003
thorax -3.88909 -1.02006 5.45122
lowerneck -5.31765 5.79922 -17.0036
upperneck -17.3836 9.32666 16.402
head -5.8718 4.30376 7.88661
rclavicle 7.63333e-014 -8.50798e-014
rhumerus -34.2953 -8.25186 -71.1659
rradius 46.0257
rwrist -21.4684
rhand -39.5393 52.0977
rfingers 7.12502
rthumb -12.5237 22.493
lclavicle 7.63333e-014 -8.50798e-014
lhumerus -0.0957877 28.9587 39.1915
lradius 90.7966
lwrist 27.87
lhand -44.52 13.4498
lfingers 7.12502
lthumb -17.3218 42.6979
rfemur -50.1362 -38.751 24.5389
rtibia 81.7219
rfoot -2.51517 -7.78163
rtoes -14.8629
lfemur -55.9374 33.9792 -14.5995
ltibia 81.3878
lfoot -9.55855 -0.162802
ltoes -30.6105
275
root 17.3421 14.1607 -3.98968 -182.34 -36.6646 191.722
lowerback 34.8531 3.98399 -4.22833
upperback 12.599 0.952587 3.36213
thorax -3.96533 -0.96785 5.52045
lowerneck -5.42512 5.93117 -16.5672
upperneck -17.1054 9.44225 15.8934
head -5.74696 4.37677 7.61622
rclavicle 4.77083e-015 -1.05753e-013
rhumerus -33.453 -9.01974 -70.8293
rradius 44.7141
rwrist -20.4647
rhand -39.6397 52.1886
rfingers 7.12502
rthumb -12.6205 22.5898
lclavicle 4.77083e-015 -1.05753e-013
lhumerus -0.787755 29.0451 38.126
lradius 91.0714
lwrist 28.3977
lhand -44.2293 13.5936
lfingers 7.12502
lthumb -17.0419 42.8661
rfemur -49.0648 -35.972 23.3893
rtibia 80.4077
rfoot -2.7325 -11.7796
rtoes -21.1973
lfemur -56.6671 34.8528 -15.7863
ltibia 83.0785
lfoot -8.96311 -2.29496
ltoes -27.6503
276
root 17.5743 14.1341 -4.14109 -182.821 -36.6539 192.444
lowerback 34.9314 3.91091 -3.80015
upperback 12.4892 1.03386 3.62289
thorax -4.12298 -0.913925 5.54406
lowerneck -5.44207 5.99856 -16.4728
upperneck -16.9202 9.5009 15.6192
head -5.68239 4.42673 7.49383
rclavicle -1.19271e-014 -3.18055e-015
rhumerus -32.6326 -9.96181 -70.4584
rradius 43.2642
rwrist -19.1816
rhand -40.0187 52.4339
rfingers 7.12502
rthumb -12.9858 22.8581
lclavicle -1.19271e-014 -3.18055e-015
lhumerus -1.44939 29.1349 37.3359
lradius 91.3188
lwrist 28.7849
lhand -43.8708 13.9018
lfingers 7.12502
lthumb -16.6968 43.2037
rfemur -47.693 -32.8395 21.7763
rtibia 78.683
rfoot -4.11647 -13.886
rtoes -24.2434
lfemur -57.08 35.5636 -16.7782
ltibia 84.4727
lfoot -8.79601 -4.05275
ltoes -24.5595
277
root 17.8025 14.0946 -4.29451 -183.214 -36.6026 193.074
lowerback 34.9292 3.84175 -3.396
upperback 12.4149 1.10855 3.85499
thorax -4.21179 -0.867513 5.55142
lowerneck -5.47961 6.06013 -16.3873
upperneck -16.8558 9.54909 15.2897
head -5.64867 4.47033 7.35898
rclavicle -3.73715e-014 -7.15625e-015
rhumerus -31.6748 -11.1925 -70.0766
rradius 41.7248
rwrist -17.9776
rhand -40.1992 52.6951
rfingers 7.12502
rthumb -13.1598 23.1304
lclavicle -3.73715e-014 -7.15625e-015
lhumerus -2.18093 29.1911 36.7462
lradius 91.7406
lwrist 29.2081
lhand -43.4214 14.0615
lfingers 7.12502
lthumb -16.2641 43.3993
rfemur -46.3412 -29.5522 19.9839
rtibia 76.5602
rfoot -5.64282 -14.3229
rtoes -22.7511
lfemur -57.2569 36.2172 -17.7188
ltibia 85.5648
lfoot -9.12238 -5.61974
ltoes -21.2505
278
root 18.0259 14.0317 -4.45098 -183.487 -36.611 193.719
lowerback 34.7712 3.66065 -2.77076
upperback 12.31 1.13134 3.91429
thorax -4.25862 -0.824496 5.27522
lowerneck -5.32241 6.16311 -16.0142
upperneck -17.0345 9.62172 14.8595
head -5.7082 4.49633 7.1387
rclavicle -1.98785e-014 -1.43125e-014
rhumerus -30.863 -12.704 -69.8782
rradius 40.255
rwrist -16.5878
rhand -39.6674 52.8876
rfingers 7.12502
rthumb -12.6471 23.2905
lclavicle -1.98785e-014 -1.43125e-014
lhumerus -2.87303 29.21 36.0494
lradius 92.2234
lwrist 29.6894
lhand -43.1251 14.2384
lfingers 7.12502
lthumb -15.9789 43.5993
rfemur -45.3093 -26.4152 18.3405
rtibia 74.1572
rfoot -5.4771 -14.2026
rtoes -27.9335
lfemur -57.3726 36.6351 -18.5451
ltibia 86.4419
lfoot -9.83803 -6.77542
ltoes -16.4092
279
root 18.2389 13.9984 -4.60052 -183.796 -36.7694 194.268
lowerback 34.7752 3.43534 -2.18528
upperback 12.1615 1.08656 4.04673
thorax -4.40564 -0.816807 5.12124
lowerneck -5.14031 6.26142 -15.8001
upperneck -17.1397 9.69048 14.4311
head -5.75675 4.53616 6.94407
rclavicle 1.05753e-013 -7.95139e-014
rhumerus -30.1955 -13.9082 -69.5863
rradius 38.9264
rwrist -14.9511
rhand -39.4235 52.6929
rfingers 7.12502
rthumb -12.412 23.0815
lclavicle 1.05753e-013 -7.95139e-014
lhumerus -3.70997 29.2965 35.5022
lradius 92.8963
lwrist 30.5558
lhand -42.8245 14.5276
lfingers 7.12502
lthumb -15.6894 43.9115
rfemur -43.9797 -23.3911 16.5173
rtibia 71.2979
rfoot -5.32437 -13.624
rtoes -29.4329
lfemur -56.9747 36.675 -19.2338
ltibia 86.7857
lfoot -11.3779 -6.72325
ltoes -13.0435
280
root 18.453 13.9473 -4.74718 -184.098 -37.0247 194.876
lowerback 34.7864 3.21872 -1.79836
upperback 12.0273 0.997448 4.48122
thorax -4.55389 -0.851924 5.4089
lowerneck -5.23372 6.35522 -15.8002
upperneck -17.1293 9.73882 13.6749
head -5.71943 4.61353 6.68088
rclavicle -5.32743e-014 -1.11319e-014
rhumerus -29.3772 -14.4876 -69.0292
rradius 37.7924
rwrist -13.6145
rhand -39.7412 52.0957
rfingers 7.12502
rthumb -12.7183 22.503
lclavicle -5.32743e-014 -1.11319e-014
lhumerus -4.82014 29.7433 35.3897
lradius 93.7017
lwrist 31.2768
lhand -42.5362 14.9969
lfingers 7.12502
lthumb -15.4117 44.4024
rfemur -42.7288 -20.4678 14.6903
rtibia 68.3337
rfoot -6.67106 -12.3166
rtoes -21.5501
lfemur -56.6749 36.5334 -19.7447
ltibia 86.902
lfoot -13.9138 -5.28301
ltoes -12.502
281
root 18.6721 13.8737 -4.89339 -184.219 -37.343 195.541
lowerback 34.635 2.97911 -1.27559
upperback 11.9048 0.929642 4.85732
thorax -4.62655 -0.868708 5.55369
lowerneck -5.62633 6.42643 -15.6041
upperneck -17.0996 9.76499 12.8604
head -5.609 4.67158 6.37994
rclavicle -2.94201e-014 8.34896e-014
rhumerus -28.5643 -15.4104 -68.597
rradius 36.8379
rwrist -12.4889
rhand -39.8908 51.8258
rfingers 7.12502
rthumb -12.8625 22.2422
lclavicle -2.94201e-014 8.34896e-014
lhumerus -5.65671 30.3072 35.6431
lradius 94.5952
lwrist 31.7628
lhand -42.1484 15.2801
lfingers 7.12502
lthumb -15.0381 44.714
rfemur -42.0843 -18.0382 13.3929
rtibia 65.322
rfoot -5.38693 -11.7532
rtoes -27.306
lfemur -56.7065 36.1403 -20.1355
ltibia 86.7873
lfoot -17.2831 -2.96977
ltoes -11.8908
282
root 18.8888 13.795 -5.03875 -184.161 -37.855 196.001
lowerback 34.4967 2.64177 -0.55504
upperback 11.7327 0.80621 4.93137
thorax -4.73214 -0.887151 5.29027
lowerneck -6.0391 6.60089 -15.0275
upperneck -16.9647 9.94202 12.1958
head -5.46833 4.76803 6.06079
rclavicle 3.49861e-014 7.95139e-015
rhumerus -28.0012 -16.99 -68.4572
rradius 35.961
rwrist -11.3753
rhand -40.0632 52.2636
rfingers 7.12502
rthumb -13.0287 22.6904
lclavicle 3.49861e-014 7.95139e-015
lhumerus -5.94775 30.6796 35.9904
lradius 95.5278
lwrist 32.3823
lhand -41.8793 15.5763
lfingers 7.12502
lthumb -14.7789 45.0293
rfemur -41.5306 -15.9671 11.9293
rtibia 62.399
rfoot -4.10277 -10.9037
rtoes -32.1424
lfemur -56.7837 35.2863 -20.4444
ltibia 86.3687
lfoot -21.0712 -0.474154
ltoes -9.01146
283
root 19.1049 13.7106 -5.18096 -184.143 -38.5745 196.375
lowerback 34.5399 2.23322 0.0664974
upperback 11.5359 0.560284 5.04419
thorax -4.92408 -0.971144 5.16532
lowerneck -6.64997 6.88994 -14.35
upperneck -16.6399 10.2754 11.4661
head -5.24788 4.94457 5.70447
rclavicle -6.75868e-014 6.36111e-015
rhumerus -27.4816 -18.3122 -68.2862
rradius 35.2184
rwrist -10.6587
rhand -40.5852 52.0668
rfingers 7.12502
rthumb -13.5318 22.5265
lclavicle -6.75868e-014 6.36111e-015
lhumerus -6.21151 31.1348 36.3551
lradius 96.4248
lwrist 33.0935
lhand -41.9544 15.7928
lfingers 7.12502
lthumb -14.8513 45.2406
rfemur -40.5409 -14.1322 10.12
rtibia 59.6239
rfoot -5.69682 -9.11666
rtoes -19.5752
lfemur -56.9089 34.0974 -20.3907
ltibia 85.7929
lfoot -24.6045 1.96515
ltoes -7.13074
284
root 19.3164 13.639 -5.31973 -184.233 -39.2624 196.702
lowerback 34.7684 1.96514 0.391088
upperback 11.4032 0.374975 5.38594
thorax -5.13555 -1.05727 5.42509
lowerneck -7.66609 7.03736 -13.8941
upperneck -16.2283 10.4364 10.7017
head -4.92068 5.05689 5.40672
rclavicle 1.59028e-014 -6.83819e-014
rhumerus -26.85 -19.1668 -67.9248
rradius 34.7008
rwrist -10.4507
rhand -40.3495 51.6449
rfingers 7.12502
rthumb -13.3046 22.0896
lclavicle 1.59028e-014 -6.83819e-014
lhumerus -6.52598 31.7886 37.0448
lradius 97.3009
lwrist 33.7099
lhand -42.005 15.7908
lfingers 7.12502
lthumb -14.9 45.235
rfemur -39.8157 -13.1467 9.03232
rtibia 56.9474
rfoot -3.74672 -8.83632
rtoes -31.7324
lfemur -56.9171 32.8489 -19.819
ltibia 85.1807
lfoot -27.4163 4.47151
ltoes -6.33837
285
root 19.5329 13.5673 -5.46424 -184.493 -39.7962 197.271
lowerback 34.9676 1.86243 0.767546
upperback 11.3033 0.409031 5.86731
thorax -5.32245 -1.04995 5.73096
lowerneck -8.60347 7.08357 -13.4895
upperneck -16.0071 10.4412 9.86127
head -4.64656 5.08693 5.10547
rclavicle -1.98785e-014 -1.26427e-013
rhumerus -26.3155 -19.868 -67.5029
rradius 34.2932
rwrist -10.1369
rhand -39.1099 52.4572
rfingers 7.12502
rthumb -12.1097 22.8277
lclavicle -1.98785e-014 -1.26427e-013
lhumerus -6.5372 32.3404 38.1817
lradius 98.1723
lwrist 34.1435
lhand -41.935 16.1861
lfingers 7.12502
lthumb -14.8326 45.6352
rfemur -38.8109 -11.5161 7.8531
rtibia 54.3407
rfoot -4.56086 -7.84814
rtoes -21.4613
lfemur -57.158 31.7834 -18.5229
ltibia 85.0107
lfoot -28.9515 6.17291
ltoes -7.0515
